<svg width="385" height="1056" viewBox="0 0 385 1056" fill="none" xmlns="http://www.w3.org/2000/svg">
<path fill-rule="evenodd" clip-rule="evenodd" d="M47.7978 885.295C47.7977 974.92 120.314 1047.57 209.768 1047.57C299.222 1047.57 371.739 974.92 371.739 885.295C371.739 795.67 299.222 723.015 209.768 723.015C189.411 723.015 169.931 726.778 151.983 733.647L151.983 664.44L359.858 664.44L359.858 568.445L60.4488 568.445L60.4488 775.861L90.1661 775.861C63.85 804.717 47.7978 843.128 47.7978 885.295ZM141.741 885.295C141.741 847.653 172.198 817.137 209.768 817.137C247.339 817.137 277.796 847.653 277.796 885.295C277.796 922.937 247.339 953.453 209.768 953.453C172.198 953.453 141.741 922.937 141.741 885.295ZM359.858 201.999L359.858 304.422L60.8765 205.856L60.8765 103.434L173.369 140.717L173.369 66.1505L359.858 8.29687L359.858 109.434L208.87 152.288L359.858 201.999Z" fill="url(#paint0_linear_2586_45693)"/>
<path d="M151.983 733.647L146.949 733.647L146.949 740.963L153.782 738.348L151.983 733.647ZM151.983 664.44L151.983 659.406L146.949 659.406L146.949 664.44L151.983 664.44ZM359.858 664.44L359.858 669.473L364.892 669.473L364.892 664.44L359.858 664.44ZM359.858 568.445L364.892 568.445L364.892 563.412L359.858 563.412L359.858 568.445ZM60.4488 568.445L60.4488 563.412L55.4154 563.412L55.4154 568.445L60.4488 568.445ZM60.4488 775.861L55.4154 775.861L55.4154 780.895L60.4488 780.895L60.4488 775.861ZM90.1661 775.861L93.8851 779.253L101.569 770.828L90.1661 770.828L90.1661 775.861ZM359.858 304.422L358.283 309.202L364.892 311.381L364.892 304.422L359.858 304.422ZM359.858 201.999L364.892 201.999L364.892 198.357L361.433 197.218L359.858 201.999ZM60.8765 205.856L55.8432 205.856L55.8432 209.497L59.3006 210.637L60.8765 205.856ZM60.8765 103.434L62.46 98.6561L55.8432 96.4631L55.8432 103.434L60.8765 103.434ZM173.369 140.717L171.785 145.495L178.402 147.688L178.402 140.717L173.369 140.717ZM173.369 66.1505L171.878 61.3431L168.336 62.4419L168.336 66.1505L173.369 66.1505ZM359.858 8.29687L364.892 8.29687L364.892 1.4654L358.367 3.48952L359.858 8.29687ZM359.858 109.434L361.233 114.276L364.892 113.237L364.892 109.434L359.858 109.434ZM208.87 152.288L207.496 147.446L191.692 151.932L207.296 157.069L208.87 152.288ZM209.768 1042.54C123.103 1042.54 52.8311 972.149 52.8311 885.295L42.7644 885.295C42.7644 977.691 117.526 1052.61 209.768 1052.61L209.768 1042.54ZM366.705 885.295C366.705 972.149 296.433 1042.54 209.768 1042.54L209.768 1052.61C302.011 1052.61 376.772 977.691 376.772 885.295L366.705 885.295ZM209.768 728.048C296.433 728.048 366.705 798.441 366.705 885.295L376.772 885.295C376.772 792.9 302.011 717.982 209.768 717.982L209.768 728.048ZM153.782 738.348C171.165 731.695 190.036 728.048 209.768 728.048L209.768 717.982C188.786 717.982 168.697 721.861 150.183 728.946L153.782 738.348ZM157.016 733.647L157.016 664.44L146.949 664.44L146.949 733.647L157.016 733.647ZM151.983 669.473L359.858 669.473L359.858 659.406L151.983 659.406L151.983 669.473ZM364.892 664.44L364.892 568.445L354.825 568.445L354.825 664.44L364.892 664.44ZM359.858 563.412L60.4488 563.412L60.4488 573.479L359.858 573.479L359.858 563.412ZM55.4154 568.445L55.4154 775.861L65.4821 775.861L65.4821 568.445L55.4154 568.445ZM60.4488 780.895L90.1661 780.895L90.1661 770.828L60.4488 770.828L60.4488 780.895ZM52.8311 885.295C52.8311 844.43 68.3823 807.217 93.8851 779.253L86.4471 772.47C59.3177 802.217 42.7644 841.826 42.7644 885.295L52.8311 885.295ZM209.768 812.104C169.409 812.104 136.707 844.882 136.707 885.295L146.774 885.295C146.774 850.423 174.987 822.171 209.768 822.171L209.768 812.104ZM282.829 885.295C282.829 844.882 250.128 812.104 209.768 812.104L209.768 822.171C244.55 822.171 272.762 850.423 272.762 885.295L282.829 885.295ZM209.768 958.486C250.128 958.486 282.829 925.708 282.829 885.295L272.762 885.295C272.762 920.167 244.55 948.419 209.768 948.419L209.768 958.486ZM136.707 885.295C136.707 925.708 169.409 958.486 209.768 958.486L209.768 948.419C174.987 948.419 146.774 920.167 146.774 885.295L136.707 885.295ZM364.892 304.422L364.892 201.999L354.825 201.999L354.825 304.422L364.892 304.422ZM59.3006 210.637L358.283 309.202L361.434 299.641L62.4524 201.076L59.3006 210.637ZM55.8432 103.434L55.8432 205.856L65.9099 205.856L65.9099 103.434L55.8432 103.434ZM174.952 135.94L62.46 98.6561L59.293 108.212L171.785 145.495L174.952 135.94ZM168.336 66.1505L168.336 140.717L178.402 140.717L178.402 66.1505L168.336 66.1505ZM358.367 3.48952L171.878 61.3431L174.86 70.9578L361.35 13.1042L358.367 3.48952ZM364.892 109.434L364.892 8.29687L354.825 8.29687L354.825 109.434L364.892 109.434ZM210.245 157.13L361.233 114.276L358.484 104.591L207.496 147.446L210.245 157.13ZM361.433 197.218L210.444 147.507L207.296 157.069L358.284 206.78L361.433 197.218Z" fill="url(#paint1_linear_2586_45693)"/>
<path d="M61.6694 351.652C50.9681 376.281 46.5363 403.187 48.7716 429.955C51.007 456.723 59.8395 482.517 74.4768 505.022C89.1141 527.528 109.098 546.041 132.637 558.9C156.176 571.76 182.532 578.564 209.343 578.703L209.827 484.582C198.567 484.524 187.497 481.666 177.611 476.265C167.725 470.864 159.331 463.088 153.184 453.636C147.036 444.184 143.326 433.35 142.387 422.108C141.449 410.865 143.31 399.565 147.805 389.22L61.6694 351.652Z" fill="#A56EFF" stroke="url(#paint2_linear_2586_45693)" stroke-width="9.11346"/>
<path d="M61.6275 351.749C71.0869 329.939 85.2148 310.479 103.011 294.745C120.808 279.011 141.838 267.388 164.615 260.698L191.041 351.02C181.476 353.83 172.643 358.711 165.168 365.319C157.694 371.928 151.76 380.101 147.787 389.261L61.6275 351.749Z" fill="#4589FF" stroke="url(#paint3_linear_2586_45693)" stroke-width="9.11346"/>
<path d="M164.572 260.711C180.787 255.944 197.647 253.748 214.54 254.204L212.01 348.292C204.915 348.101 197.834 349.023 191.024 351.025L164.572 260.711Z" fill="#EE5396" stroke="url(#paint4_linear_2586_45693)" stroke-width="9.11346"/>
<path d="M214.048 254.192C239.556 254.802 264.559 261.442 287.02 273.57L242.452 356.426C233.018 351.332 222.517 348.544 211.804 348.287L214.048 254.192Z" fill="#FF8A14" stroke="url(#paint5_linear_2586_45693)" stroke-width="9.11346"/>
<path d="M287.121 273.625C318.894 290.81 344.025 318.14 358.521 351.272C373.018 384.405 376.049 421.441 367.133 456.497C358.217 491.553 337.866 522.619 309.311 544.76C280.757 566.901 245.637 578.849 209.53 578.704L209.906 484.582C225.071 484.643 239.821 479.625 251.814 470.326C263.807 461.026 272.355 447.979 276.099 433.255C279.844 418.532 278.571 402.977 272.482 389.061C266.394 375.145 255.839 363.667 242.494 356.449L287.121 273.625Z" fill="#0CE466" stroke="url(#paint6_linear_2586_45693)" stroke-width="9.11346"/>
<defs>
<linearGradient id="paint0_linear_2586_45693" x1="371.739" y1="527.936" x2="47.7978" y2="527.936" gradientUnits="userSpaceOnUse">
<stop stop-color="white"/>
<stop offset="0.875" stop-color="#E2E2E5"/>
<stop offset="1" stop-color="#C7C7CC"/>
</linearGradient>
<linearGradient id="paint1_linear_2586_45693" x1="371.739" y1="527.936" x2="47.7978" y2="527.936" gradientUnits="userSpaceOnUse">
<stop stop-color="#2A3136"/>
<stop offset="1" stop-color="#121619"/>
</linearGradient>
<linearGradient id="paint2_linear_2586_45693" x1="210.178" y1="578.705" x2="210.178" y2="254.145" gradientUnits="userSpaceOnUse">
<stop stop-color="#2A3136"/>
<stop offset="1" stop-color="#121619"/>
</linearGradient>
<linearGradient id="paint3_linear_2586_45693" x1="210.178" y1="578.705" x2="210.178" y2="254.145" gradientUnits="userSpaceOnUse">
<stop stop-color="#2A3136"/>
<stop offset="1" stop-color="#121619"/>
</linearGradient>
<linearGradient id="paint4_linear_2586_45693" x1="210.178" y1="578.705" x2="210.178" y2="254.145" gradientUnits="userSpaceOnUse">
<stop stop-color="#2A3136"/>
<stop offset="1" stop-color="#121619"/>
</linearGradient>
<linearGradient id="paint5_linear_2586_45693" x1="210.178" y1="578.705" x2="210.178" y2="254.145" gradientUnits="userSpaceOnUse">
<stop stop-color="#2A3136"/>
<stop offset="1" stop-color="#121619"/>
</linearGradient>
<linearGradient id="paint6_linear_2586_45693" x1="210.178" y1="578.705" x2="210.178" y2="254.145" gradientUnits="userSpaceOnUse">
<stop stop-color="#2A3136"/>
<stop offset="1" stop-color="#121619"/>
</linearGradient>
</defs>
</svg>
